<svg id="Capa_1" enable-background="new 0 0 512.002 512.002" height="512" viewBox="0 0 512.002 512.002" width="512" xmlns="http://www.w3.org/2000/svg"><path d="m512.001 120.001c0-27.906-19.15-51.425-45-58.102v-61.898h-422v61.898c-25.85 6.677-45 30.195-45 58.102v45.5h512zm-75-90v30h-362v-30zm45 105.5h-452v-15.5c0-16.542 13.458-30 30-30h392c16.542 0 30 13.458 30 30z"/><path d="m461.424 331.001c30.821-24.859 50.576-62.913 50.576-105.5v-15h-15c-52.417 0-97.972 29.923-120.497 73.579-22.525-43.658-68.084-73.579-120.503-73.579s-97.978 29.921-120.503 73.579c-22.525-43.656-68.08-73.579-120.497-73.579h-15v15c0 42.587 19.755 80.641 50.576 105.5h-50.574v77.409l34.151 103.591h443.698l34.151-103.591v-77.409zm19.326-89.251c-7.015 45.188-42.813 80.986-88.001 88.002 7.016-45.189 42.814-80.986 88.001-88.002zm-120.502 87.998c-45.185-7.015-80.974-42.81-87.991-87.995 45.183 7.019 80.974 42.812 87.991 87.995zm-68.672 1.253h-71.151c14.683-11.843 26.857-26.677 35.576-43.574 8.718 16.897 20.892 31.731 35.575 43.574zm-51.833-89.247c-7.017 45.185-42.806 80.979-87.991 87.995 7.017-45.184 42.808-80.977 87.991-87.995zm-208.493-.004c45.188 7.016 80.986 42.813 88.001 88.002-45.188-7.016-80.986-42.814-88.001-88.002zm450.752 119.251v30h-452v-30zm-426.151 121-20.11-61h440.522l-20.11 61z"/></svg>