<svg id="Capa_1" enable-background="new 0 0 512 512" height="512" viewBox="0 0 512 512" width="512" xmlns="http://www.w3.org/2000/svg"><path d="m375 258.105-74.343 120.258c-8.607 13.845-13.157 29.799-13.157 46.137 0 48.248 39.252 87.5 87.5 87.5s87.5-39.252 87.5-87.5c0-16.334-4.547-32.284-13.15-46.127zm0 223.895c-31.706 0-57.5-25.794-57.5-57.5 0-10.735 2.986-21.211 8.654-30.33l48.846-79.012 48.846 79.013c5.668 9.118 8.654 19.595 8.654 30.33 0 31.705-25.794 57.499-57.5 57.499z"/><path d="m0 0v105h60v60h30v60h90v-60h30v-60h90v60h30v60h90v-60h30v-60h62v-105zm120 105v30h-30v-30zm30 90h-30v-30h30zm30-60h-30v-30h30zm180-30v30h-30v-30zm30 90h-30v-30h30zm30-60h-30v-30h30zm62-60h-452v-45h452z"/><path d="m135 258.105-74.343 120.258c-8.608 13.845-13.157 29.799-13.157 46.137 0 48.248 39.252 87.5 87.5 87.5s87.5-39.252 87.5-87.5c0-16.334-4.547-32.284-13.15-46.127zm0 223.895c-31.706 0-57.5-25.794-57.5-57.5 0-10.735 2.986-21.211 8.654-30.33l48.846-79.012 48.846 79.013c5.668 9.118 8.654 19.595 8.654 30.33 0 31.705-25.794 57.499-57.5 57.499z"/></svg>